<mxfile host="Electron" agent="Mozilla/5.0 (X11; Linux x86_64) AppleWebKit/537.36 (KHTML, like Gecko) draw.io/28.0.4 Chrome/138.0.7204.97 Electron/37.2.1 Safari/537.36" version="28.0.4">
  <diagram name="第 1 页" id="lfPKvg62NTZzQYQEEUwq">
    <mxGraphModel dx="473" dy="279" grid="1" gridSize="10" guides="1" tooltips="1" connect="1" arrows="1" fold="1" page="1" pageScale="1" pageWidth="827" pageHeight="1169" math="0" shadow="0">
      <root>
        <mxCell id="0" />
        <mxCell id="1" parent="0" />
        <mxCell id="DqBpx9Kv2g2J2fjCyHHW-1" value="" style="shape=parallelogram;perimeter=parallelogramPerimeter;whiteSpace=wrap;html=1;fixedSize=1;rounded=1;rotation=-90;size=15;strokeWidth=4;strokeColor=#333333;fillColor=#FAF8F1;" vertex="1" parent="1">
          <mxGeometry x="75" y="155" width="130" height="70" as="geometry" />
        </mxCell>
        <mxCell id="DqBpx9Kv2g2J2fjCyHHW-2" value="" style="shape=parallelogram;perimeter=parallelogramPerimeter;whiteSpace=wrap;html=1;fixedSize=1;rounded=1;rotation=-90;size=15;flipV=1;strokeWidth=4;strokeColor=#333333;fillColor=#FAF8F1;" vertex="1" parent="1">
          <mxGeometry x="145" y="155" width="130" height="70" as="geometry" />
        </mxCell>
        <mxCell id="DqBpx9Kv2g2J2fjCyHHW-3" value="&lt;font face=&quot;Georgia&quot; style=&quot;color: rgb(51, 51, 51); font-size: 56px;&quot;&gt;Y&lt;/font&gt;" style="text;html=1;align=center;verticalAlign=middle;resizable=0;points=[];autosize=1;strokeColor=none;fillColor=none;glass=0;rounded=0;shadow=0;" vertex="1" parent="1">
          <mxGeometry x="110" y="148.39" width="60" height="80" as="geometry" />
        </mxCell>
        <mxCell id="DqBpx9Kv2g2J2fjCyHHW-4" value="" style="triangle;whiteSpace=wrap;html=1;rotation=-105;fillColor=#333333;rounded=0;strokeColor=none;" vertex="1" parent="1">
          <mxGeometry x="176.85" y="174.95" width="38.46" height="44.45" as="geometry" />
        </mxCell>
        <mxCell id="DqBpx9Kv2g2J2fjCyHHW-5" value="" style="triangle;whiteSpace=wrap;html=1;rotation=-105;fillColor=#333333;strokeColor=none;" vertex="1" parent="1">
          <mxGeometry x="205.42" y="176.84" width="31.1" height="35.05" as="geometry" />
        </mxCell>
        <mxCell id="DqBpx9Kv2g2J2fjCyHHW-6" value="" style="ellipse;whiteSpace=wrap;html=1;aspect=fixed;fillColor=#333333;strokeColor=none;" vertex="1" parent="1">
          <mxGeometry x="205" y="162.59" width="13.63" height="13.63" as="geometry" />
        </mxCell>
      </root>
    </mxGraphModel>
  </diagram>
</mxfile>
